<svg width="21" height="25" viewBox="0 0 21 25" fill="none" xmlns="http://www.w3.org/2000/svg">
<path d="M16.7848 13.1359C16.797 12.1892 17.0485 11.2609 17.5158 10.4374C17.9833 9.61394 18.6513 8.92206 19.4579 8.42623C18.9455 7.69436 18.2695 7.09209 17.4836 6.66729C16.6978 6.24239 15.8236 6.00664 14.9306 5.97872C13.0259 5.77877 11.1793 7.11846 10.2086 7.11846C9.2192 7.11846 7.72472 5.99857 6.11542 6.03165C5.07453 6.06531 4.06001 6.368 3.17091 6.91024C2.28171 7.45248 1.54819 8.21588 1.04174 9.1259C-1.15202 12.9241 0.484337 18.5061 2.58576 21.5763C3.63716 23.0796 4.86593 24.7589 6.47376 24.6994C8.04716 24.6341 8.63474 23.6961 10.534 23.6961C12.4155 23.6961 12.9668 24.6994 14.6073 24.6616C16.2955 24.6341 17.3593 23.1515 18.3738 21.6339C19.1292 20.5626 19.7105 19.3787 20.0962 18.126C19.1153 17.7111 18.2783 17.0167 17.6894 16.1294C17.1006 15.242 16.786 14.2009 16.7848 13.1359Z" fill="white"/>
<path d="M13.6865 3.95947C14.607 2.8544 15.0606 1.43404 14.9508 0C13.5445 0.147707 12.2453 0.819856 11.3124 1.88252C10.8562 2.40166 10.5068 3.00561 10.2842 3.65985C10.0616 4.31408 9.97014 5.00578 10.015 5.69539C10.7185 5.70259 11.4144 5.55018 12.0504 5.24948C12.6863 4.94879 13.2458 4.50771 13.6865 3.95947Z" fill="white"/>
</svg>
