<svg width="36" height="36" viewBox="0 0 36 36" fill="none" xmlns="http://www.w3.org/2000/svg">
<g clip-path="url(#clip0_576_8033)">
<path d="M37 0.5H0V36.5H37V0.5Z" fill="white"/>
<path d="M24.3005 17.271C24.3126 16.3243 24.5641 15.396 25.0315 14.5725C25.4989 13.7491 26.1669 13.0572 26.9735 12.5614C26.4611 11.8295 25.7851 11.2272 24.9993 10.8024C24.2134 10.3775 23.3393 10.1418 22.4463 10.1139C20.5415 9.9139 18.6949 11.2536 17.7242 11.2536C16.7348 11.2536 15.2403 10.1337 13.631 10.1668C12.5902 10.2004 11.5756 10.5031 10.6865 11.0454C9.79733 11.5876 9.06381 12.351 8.55737 13.261C6.36361 17.0592 7.99996 22.6413 10.1014 25.7114C11.1528 27.2147 12.3816 28.8941 13.9894 28.8345C15.5628 28.7692 16.1504 27.8312 18.0496 27.8312C19.9311 27.8312 20.4824 28.8345 22.123 28.7967C23.8112 28.7692 24.8749 27.2866 25.8894 25.769C26.6448 24.6977 27.2261 23.5138 27.6118 22.2611C26.6309 21.8463 25.7939 21.1518 25.205 20.2645C24.6162 19.3771 24.3016 18.3361 24.3005 17.271Z" fill="#3F3F46"/>
<path d="M21.2021 8.09472C22.1227 6.98966 22.5763 5.56929 22.4664 4.13525C21.0601 4.28296 19.761 4.95511 18.828 6.01777C18.3719 6.53691 18.0225 7.14086 17.7998 7.7951C17.5772 8.44934 17.4858 9.14103 17.5306 9.83065C18.2341 9.83785 18.9301 9.68543 19.566 9.38474C20.2019 9.08405 20.7614 8.64296 21.2021 8.09472Z" fill="#3F3F46"/>
</g>
<defs>
<clipPath id="clip0_576_8033">
<rect width="36" height="36" fill="white"/>
</clipPath>
</defs>
</svg>
