<svg width="20" height="20" viewBox="0 0 20 20" fill="none" xmlns="http://www.w3.org/2000/svg">
<path d="M10 0C10.4656 0 10.91 0.194738 11.2256 0.537109L12.2396 1.63818L13.6694 1.19222C14.114 1.05335 14.5967 1.10669 15 1.33952C15.4032 1.57234 15.6906 1.9635 15.7927 2.41781L16.1198 3.87939L17.5822 4.20736C18.0365 4.30942 18.4277 4.59674 18.6605 5C18.8933 5.40333 18.9467 5.88604 18.8077 6.33057L18.361 7.7596L19.4629 8.77442C19.8052 9.09 20 9.53442 20 10C20 10.4656 19.8052 10.91 19.4629 11.2256L18.361 12.2396L18.8077 13.6694C18.9467 14.114 18.8933 14.5967 18.6605 15C18.4277 15.4032 18.0365 15.6906 17.5822 15.7927L16.1198 16.1198L15.7927 17.5822C15.6906 18.0365 15.4032 18.4277 15 18.6605C14.5967 18.8933 14.114 18.9467 13.6694 18.8077L12.2396 18.361L11.2256 19.4629C10.91 19.8052 10.4656 20 10 20C9.53442 20 9.09 19.8052 8.77442 19.4629L7.7596 18.361L6.33057 18.8077C5.88604 18.9467 5.40333 18.8933 5 18.6605C4.59674 18.4277 4.30942 18.0365 4.20736 17.5822L3.87939 16.1198L2.41781 15.7927C1.9635 15.6906 1.57234 15.4032 1.33952 15C1.10669 14.5967 1.05335 14.114 1.19222 13.6694L1.63818 12.2396L0.537109 11.2256C0.194738 10.91 0 10.4656 0 10C0 9.53442 0.194738 9.09 0.537109 8.77442L1.63818 7.7596L1.19222 6.33057C1.05335 5.88604 1.10669 5.40333 1.33952 5C1.57234 4.59674 1.9635 4.30942 2.41781 4.20736L3.87939 3.87939L4.20736 2.41781C4.30942 1.9635 4.59674 1.57234 5 1.33952C5.40333 1.10669 5.88604 1.05335 6.33057 1.19222L7.7596 1.63818L8.77442 0.537109C9.09 0.194738 9.53442 0 10 0ZM13.0892 7.74414C12.7637 7.4187 12.2362 7.4187 11.9108 7.74414L9.16667 10.4882L8.08919 9.41083L8.02572 9.35383C7.69841 9.08692 7.2159 9.10575 6.91081 9.41083C6.58537 9.73625 6.58537 10.2637 6.91081 10.5892L8.5775 12.2558C8.90292 12.5813 9.43042 12.5813 9.75583 12.2558L13.0892 8.9225C13.4147 8.59708 13.4147 8.06957 13.0892 7.74414Z" fill="url(#paint0_linear_572_7559)"/>
<defs>
<linearGradient id="paint0_linear_572_7559" x1="6.65026" y1="70.7793" x2="-21.29" y2="62.6628" gradientUnits="userSpaceOnUse">
<stop stop-color="#8B5CF6"/>
<stop offset="1" stop-color="#5B21B6"/>
</linearGradient>
</defs>
</svg>
