<svg width="650" height="169" viewBox="0 0 650 169" fill="none" xmlns="http://www.w3.org/2000/svg">
<path d="M6.96816 113.2C10.895 113.822 15.9943 114.879 19.8609 115.75C21.0724 116.023 20.416 116.117 21.2505 116.314C22.8827 116.7 24.4347 116.881 26.0442 117.279C26.5779 117.412 25.8449 117.618 26.4059 117.749C29.4816 118.469 32.4242 118.926 35.5533 119.576C50.958 122.777 66.137 125.694 81.7723 128.688C86.9245 129.675 93.1513 131.11 98.5108 131.938C99.1355 132.034 98.8169 131.678 98.9395 131.675C100.861 131.642 100.133 132.116 101.337 132.413C106.108 133.586 111.461 134.569 116.109 135.278C118.085 135.578 116.211 134.652 118.145 135.328C118.28 135.374 117.723 135.594 118.26 135.723C119.478 136.015 121.816 136.371 122.76 136.563C124.58 136.934 124.88 136.984 126.62 137.293C129 137.719 131.769 138.362 134.337 138.738C134.884 138.818 134.219 138.376 135.096 138.473C135.975 138.571 138.262 138.997 139.02 139.205C139.778 139.413 139.406 139.605 139.533 139.685C140.562 140.359 143.351 140.156 143.691 140.197C149.949 140.989 155.222 142.28 161.082 143.268C165.507 144.014 170.267 144.68 174.508 145.398C179.522 146.249 183.769 147.118 188.672 147.877C189.19 147.957 188.643 147.487 189.276 147.585C195.957 148.614 202.644 149.707 209.266 150.978C209.934 151.106 209.018 151.301 209.682 151.449C213.734 152.346 220.126 153.959 222.773 152.887C225.559 153.353 228.893 153.892 231.357 154.535C232.931 154.946 231.329 155.085 233.31 155.209C233.756 155.237 233.227 154.843 233.892 154.909C236.731 155.19 239.747 155.709 242.568 155.924C243.14 155.966 243.022 155.665 243.19 155.636C244.596 155.408 246.728 156.379 247.202 156.491C247.215 156.494 247.227 156.496 247.239 156.499C250.936 157.352 253.615 157.547 257.088 157.984C257.889 158.085 256.989 157.591 257.76 157.674C261.775 158.112 265.942 158.632 269.843 159.234C270.705 159.368 269.873 159.602 270.283 159.683C272.115 160.035 272.605 159.473 274.352 159.792C274.721 159.858 274.482 160.112 274.547 160.149C275.555 160.737 276.543 160.158 276.826 160.172C280.331 160.327 282.47 161.247 285.824 161.458C286.223 161.482 285.36 161.05 286.477 161.138C293.987 161.73 301.947 162.436 309.372 163.136C310.522 163.244 309.685 163.461 309.755 163.497C310.904 164.07 311.718 163.431 312.099 163.425C315.087 163.395 317.865 164.083 319.9 163.347C332.528 164.095 345.071 163.619 357.613 163.647C357.773 163.647 357.506 163.998 357.825 163.995C361.646 163.96 360.903 163.478 363.368 162.668C363.989 162.465 365.986 163.082 366.16 163.123C366.799 163.28 366.194 163.829 366.406 163.853C368.154 164.026 367.748 162.408 370.066 162.199C370.139 162.195 369.862 162.525 370.059 162.538C370.672 162.577 371.263 162.4 371.868 162.446C373.252 162.554 373.81 163.306 375.844 162.619C376.1 162.529 375.602 161.647 377.674 161.459C378.504 161.388 382.151 160.931 383.183 160.853C384.212 160.781 383.55 161.171 383.624 161.174C386.428 161.206 385.408 161.506 386.871 161.902C388.335 162.291 387.756 160.956 388.295 160.721C388.363 160.692 388.454 160.667 388.562 160.645C389.327 160.496 390.964 160.52 391.413 160.553C391.925 160.591 391.336 160.874 391.786 160.871C394.774 160.838 392.962 159.985 393.888 159.615C396.063 158.736 397.992 159.466 400.081 159.204C400.646 159.132 400.148 158.98 400.642 158.87C402.597 158.435 403.845 158.536 406.026 157.815C406.385 157.697 408.069 156.731 409.326 156.943C409.505 156.974 409.085 157.324 409.934 157.211C411.202 157.042 413.464 156.623 414.785 156.244C415.76 155.965 414.536 155.797 415.808 155.652C416.373 155.587 415.402 156.059 416.461 155.916C417.516 155.776 420.151 155.157 421.151 154.908C422.149 154.661 421.526 154.476 421.602 154.436C422.062 154.199 423.939 153.58 424.108 153.538C432.617 151.391 440.565 149.684 448.657 146.876C449.292 146.656 448.761 146.469 448.856 146.432C450.995 145.582 449.556 147.01 451.179 146.794C450.74 146.209 451.681 146.033 453.191 145.441C453.918 145.155 453.429 145.038 453.488 144.989C454.45 144.231 455.382 144.464 455.614 144.498C456.468 144.621 457.101 143.903 457.68 143.979C458.26 144.052 457.257 144.821 458.723 144.296C459.05 143.916 457.746 143.692 458.821 143.197C462.879 141.35 470.797 138.836 474.125 137.509C477.447 136.202 478.489 135.702 480.436 134.966C483.951 133.62 482.493 133.727 484.538 132.583C486.58 131.429 486.028 132.971 486.44 133.065C486.846 133.162 487.068 132.774 487.5 132.732C487.932 132.689 487.194 133.214 488.095 132.862C488.999 132.512 491.206 130.992 491.403 130.604C491.818 129.786 490.494 129.758 492.885 128.859C493.023 128.808 492.726 129.293 493.247 129.08C493.617 128.929 493.987 128.774 494.357 128.617C498.124 127.02 501.903 125.169 505.599 123.476C506.158 123.22 505.83 123.78 506.156 123.634C509.559 122.112 508.11 122.207 509.605 120.684C509.604 121.659 510.853 121.603 513.341 120.264C514.836 119.456 514.399 119.264 515.234 118.504C515.484 118.276 516.659 117.924 516.764 117.662C517.11 116.807 515.812 116.792 518.471 115.601C518.588 115.55 518.39 116.025 518.783 115.826C521.328 114.537 521.323 113.844 523.951 112.244C526.009 110.992 529.889 109.131 532.271 107.757C532.723 108.619 534.829 107.082 535.378 105.958C536.908 105.052 538.53 104 540.034 103.164C540.555 102.874 540.373 103.32 540.453 103.306C541.681 103.096 541.987 102.131 542.297 101.904C545.685 99.4578 548.806 98.0153 551.856 95.4105C551.964 95.3176 551.783 94.63 552.938 94.4498C553.014 94.4398 552.095 95.4235 553.659 94.4053C555.238 93.3783 558.354 91.7003 560.322 89.9573C560.796 89.5386 561.792 88.1816 563.082 87.7987C563.255 87.7487 563.213 88.0137 563.476 87.961C564.32 87.7876 564.285 86.9787 565.383 86.9113C566.478 86.846 568.323 86.0701 570.218 84.2087C570.28 84.15 570.47 83.3468 571.14 82.8704C572.214 82.1083 573.784 81.0965 574.896 80.2694C575.426 79.875 574.886 79.8571 574.975 79.7839C577.798 77.4986 580.107 75.9698 582.959 73.9492C583.562 73.4687 584.193 72.9601 584.855 72.4164C585.52 71.8722 587.117 69.8733 588.612 69.0386C590.245 68.1252 589.931 70.6052 592.854 67.4889C594.033 66.2293 594.243 63.2434 597.27 61.9588C601.518 57.7399 605.925 54.3949 610.001 49.9449C610.185 49.7443 610.394 48.733 610.849 48.3034C611.523 47.6675 612.1 47.4861 612.59 47.0325C614.646 45.1374 616.333 43.1328 618.249 41.2456C618.988 40.5143 618.937 40.9688 619.806 40.1048C620.655 39.2585 620.997 38.3763 622.257 37.3241C623.244 36.493 624.633 36.1356 625.861 34.9569C625.36 34.3966 626.153 33.581 627.391 31.9446C627.626 31.6331 627.153 31.7631 627.253 31.6068C627.649 30.9779 628.301 30.5838 628.667 29.9629C628.757 29.8112 628.573 29.6338 628.635 29.5006C629.168 28.3542 630.903 27.2654 631.215 27.0603C632.374 26.3193 632.512 25.6529 633.29 24.9798C634.056 24.318 633.224 25.5744 634.053 24.7478C635.785 23.0184 637.751 20.5806 639.294 18.6436C639.902 17.8783 639.221 18.191 639.302 18.0765C640.5 16.4167 642.026 14.9872 642.145 13.6729C644.395 13.5559 642.748 12.5896 644.681 10.3993C644.831 10.2275 645.689 10.4439 645.286 11.2524C644.884 12.0559 643.907 12.9957 643.325 14.1154C643.204 14.3616 642.814 16.1942 642.721 16.3908C641.927 18.0526 640.79 17.4797 640.679 17.5147C639.441 17.918 638.829 20.0295 638.544 20.4706C637.203 22.5516 635.729 24.0314 634.537 25.71C633.751 26.8095 634.275 27.4432 633.564 28.2182C631.179 30.8005 629.508 30.9521 628 34.0356C627.668 34.7 628.799 34.7966 626.556 36.1675C626.408 36.2623 624.663 37.1793 624.195 38.2511C624.136 38.3861 624.326 38.562 624.215 38.7089C623.48 39.6784 622.78 40.1064 621.92 41.1304C621.089 42.124 620.056 43.3826 618.947 44.3713C618.27 44.9781 617.099 45.4634 616.715 45.6779C615.616 46.291 615.054 47.6256 614.236 47.8498C613.402 48.0861 614.029 46.5952 612.411 47.8013C612.827 48.3348 613.186 48.9489 613.571 49.5177C610.405 52.5647 607.124 55.3764 603.918 58.3928C603.52 58.7682 604.177 58.6523 603.755 59.0624C601.979 60.7847 600.206 62.0601 598.39 63.8445C596.953 65.2556 595.621 66.9669 594.125 68.4276C592.679 68.6861 590.542 70.9263 588.815 72.3419C588.207 72.8414 588.107 72.6556 587.645 72.9704C585.915 74.1485 587.094 74.0227 586.732 74.4789C585.996 75.404 585.339 75.669 584.624 75.8933C584.604 75.9103 584.543 75.9608 584.522 75.9766C583.721 76.1728 582.841 76.32 581.628 77.2694C581.511 77.3617 580.503 79.1553 580.32 79.3557C579.206 80.6115 579.932 79.2913 579.072 79.8617C577.489 80.9098 576.328 81.5294 574.687 83.034C574.214 83.4704 573.255 84.8058 572.014 85.2162C571.85 85.271 571.764 84.9979 571.648 85.0629C569.535 86.2633 569.998 86.9766 569.04 88.0163C568.089 89.0508 566.013 89.7958 565.563 89.9042C564.391 90.1918 566.16 89.2552 566.189 89.1815C566.482 88.3475 565.265 89.3157 564.278 89.9533C563.66 89.3665 562.332 90.3536 563.249 90.6211C563.352 90.6486 564.062 90.0577 564.278 89.9533C563.896 91.2212 562.47 92.3434 560.375 92.8531C559.4 93.0862 559.902 92.2398 557.63 93.9727C556.599 94.7557 557.338 94.9501 556.48 95.7191C554.512 97.4799 551.397 98.9026 549.186 100.443C548.387 101 549.354 100.746 548.813 101.136C547.372 102.175 545.935 102.818 544.496 103.879C544.365 103.975 544.876 104.041 544.41 104.342C540.889 106.625 537.674 108.372 533.922 110.634C532.108 111.73 528.95 113.815 527.03 114.886C523.714 116.75 519.407 118.629 516.617 120.292C514.797 121.375 515.361 121.44 514.669 122.072C513.337 123.293 510.226 124.062 509.801 124.147C509.788 124.15 511.362 123.229 510.424 123.534C509.76 123.487 509.818 124.136 509.801 124.147C509.523 124.21 506.26 125.826 505.643 126.209C505.309 126.419 505.647 126.596 505.47 126.7C502.356 128.528 499.159 130.222 495.866 131.772C494.705 132.319 493.535 132.846 492.352 133.356C492.27 133.387 492.242 133.015 492.052 133.092C489.391 134.158 487.9 135.302 485.843 136.494C483.784 137.685 482.024 138.35 480.504 138.347C478.895 139.117 476.433 139.854 475.011 140.259C473.589 140.664 473.653 141.369 473.538 141.43C469.947 143.333 467.624 143.815 463.676 145.217C461.798 145.885 458.112 147.308 456.093 148.077C454.5 148.689 453.475 148.866 452.016 149.458C451.819 149.538 452.118 149.758 452.06 149.789C450.506 150.684 451.076 149.716 450.691 149.703C449.293 149.653 448.448 149.661 446.378 150.55C445.902 150.754 444.777 152.22 443.889 152.556C442.736 152.989 443.069 152.489 441.863 152.947C441.76 152.986 441.85 153.206 441.085 153.422C437.535 154.427 433.626 155.377 429.926 156.368C429.42 156.503 430.164 156.695 429.434 156.895C426.007 157.833 422.219 158.74 418.807 159.337C417.967 159.482 418.429 159.109 418.232 159.074C417.023 158.866 415.603 159.878 415.346 159.947C409.223 161.606 404.346 161.918 398.042 163.286C397.7 163.363 395.147 164.525 393.856 164.088C393.767 164.06 392.49 163.609 391.515 164.199C391.454 164.236 392.239 164.454 390.951 164.612C390.452 164.673 389.841 164.788 389.173 164.898C388.118 165.073 386.921 165.237 385.807 165.162C385.231 165.124 383.831 164.665 382.224 165.381C382.121 165.431 379.678 166.893 378.658 166.205C378.492 166.091 378.556 165.238 376.609 165.889C376.237 166.013 376.951 166.126 375.956 166.351C374.43 166.697 372.366 166.678 370.501 167.226C370.178 167.323 368.815 168.02 367.641 167.681C367.459 167.628 367.771 167.319 367.173 167.337C364.324 167.419 361.345 167.816 358.453 167.785C357.425 167.775 357.924 167.291 356.848 167.227C355.778 167.163 353.631 167.146 352.518 167.398C351.416 167.651 352.662 168.329 350.992 168.451C343.702 168.97 336.497 168.596 329.227 168.411C328.143 168.382 329.033 168.66 327.454 168.633C321.612 168.556 311.479 168.346 306.463 167.465C302.46 166.771 307.549 166.755 304.485 166.38C303.009 166.199 301.303 166.927 300.957 166.929C297.432 166.95 295.02 166.386 291.826 166.235C291.165 166.204 291.777 166.598 291.224 166.568C289.348 166.469 287.33 166.137 285.527 165.999C284.718 165.938 284.843 166.212 284.098 166.122C282.314 165.908 280.719 165.643 279.019 165.227C278.863 165.189 279.963 164.972 278.645 164.828C276.489 164.593 273.887 164.078 271.383 164.056C270.643 164.051 270.53 164.64 269.027 164.058C268.708 163.936 269.21 163.272 267.317 163.682C267.004 163.751 263.808 164.227 262.388 163.516C262.009 163.329 261.066 162.626 260.173 162.612C260.051 162.612 260.493 162.988 259.758 162.932C257.18 162.727 254.513 162.363 251.866 162.128C251.167 162.067 252.162 162.528 251.12 162.426C249.715 162.288 248.131 162.084 246.536 161.852C244.919 161.616 243.293 161.351 241.859 161.105C240.822 160.926 241.579 160.751 241.507 160.711C240.345 160.063 239.556 160.618 239.15 160.601C236.645 160.491 234.728 159.913 232.446 159.674C231.811 159.607 232.215 159.98 232.085 159.99C230.74 160.075 231.793 159.656 230.973 159.478C228.667 158.974 226.071 158.626 223.721 158.324C222.854 158.213 223.774 158.714 222.996 158.61C218.389 158.001 213.634 157.254 209.202 156.375C208.364 156.208 208.937 156.013 208.771 155.922C207.618 155.295 205.762 155.625 205.349 155.62C203.463 155.597 202.78 155.241 201.129 155.03C193.109 154.014 183.279 152.264 175.762 150.922C165.973 149.177 158.392 147.627 149.05 146.098C148.453 146 148.991 146.47 148.476 146.39C141.867 145.347 135.368 144.072 128.741 143.019C128.197 142.932 128.919 143.417 128.043 143.288C126.249 143.028 123.969 142.608 122.194 142.18C121.324 141.972 122.556 141.882 121.679 141.678C119.639 141.203 117.417 140.784 115.288 140.464C114.383 140.328 115.679 140.925 114.508 140.721C106.5 139.336 98.6575 137.993 90.657 136.074C90.1105 135.943 89.7565 135.134 88.556 135.06C88.4312 135.244 88.3934 135.48 88.3161 135.687C76.6668 133.7 65.2067 131.349 53.5601 129.171C53.0689 129.079 53.8482 129.617 52.8968 129.441C47.3889 128.423 42.0235 127.545 36.4663 126.127C35.9143 125.987 36.3253 125.368 34.6593 125.165C34.3647 125.13 31.8686 124.762 31.2016 124.79C31.1105 124.796 31.5047 125.193 30.7045 125.054C26.0531 124.245 21.2023 123.273 16.6016 122.224C15.859 122.054 16.7178 121.867 16.1895 121.743C12.4458 120.867 8.28581 120.359 4.73281 119.387C2.35396 118.736 3.35559 118.324 2.1766 117.518C2.00981 117.404 0.515589 117.114 0.499433 116.769C0.454734 115.901 1.34825 115.125 1.21495 114.184C1.18747 113.982 -0.854937 113.816 0.417187 113.574C0.50581 113.559 1.9873 113.675 2.37418 113.585C2.6434 113.523 2.25665 113.103 2.79071 113.059C3.3247 113.015 3.83112 113.4 4.70407 113.394C5.577 113.385 5.27747 112.934 6.96816 113.2ZM468.602 142.034C467.218 142.219 467.459 143.408 468.73 142.611C468.79 142.571 468.674 142.024 468.602 142.034ZM606.512 54.691C604.866 55.5162 604.488 56.9282 605.693 56.3599C606.894 55.793 607.012 54.4394 606.512 54.691ZM619.394 41.58C617.638 42.7659 618.616 44.1883 619.935 42.3668C620.013 42.2601 619.497 41.5101 619.394 41.58ZM8.1618 118.459C8.14616 118.44 7.0735 118.226 7.04491 118.236C6.40295 118.504 8.54819 118.933 8.1618 118.459ZM631.552 27.9981C630.964 28.3183 629.911 29.8899 630.663 29.4784C631.271 29.146 632.3 27.5826 631.552 27.9981ZM400.238 159.769C400.214 159.755 399.438 159.875 399.471 159.971C399.579 160.282 400.64 160.003 400.238 159.769ZM649.319 2.66724C647.614 7.05749 644.909 8.61251 647.25 4.37494C647.645 3.58458 646.851 6.2855 647.443 5.3238C648.555 3.50703 648.149 1.95755 649.13 0.0315732C649.319 -0.322502 649.444 2.40666 649.318 2.67571C649.318 2.67289 649.318 2.67006 649.319 2.66724ZM467.356 140.975C467.325 140.97 466.307 141.345 466.288 141.368C465.874 141.934 467.929 141.179 467.356 140.975ZM354.735 164.123C354.678 164.094 352.148 164.173 352.076 164.205C350.786 164.883 355.885 164.727 354.735 164.123ZM532.321 107.757C533.136 106.819 534.317 106.046 535.373 105.961C534.356 106.555 533.345 107.166 532.321 107.757Z" fill="url(#paint0_linear_617_3056)"/>
<defs>
<linearGradient id="paint0_linear_617_3056" x1="215.739" y1="584.045" x2="-210.612" y2="96.1436" gradientUnits="userSpaceOnUse">
<stop stop-color="#8B5CF6"/>
<stop offset="1" stop-color="#5B21B6"/>
</linearGradient>
</defs>
</svg>
