<svg width="16" height="28" viewBox="0 0 16 28" fill="none" xmlns="http://www.w3.org/2000/svg">
<path fill-rule="evenodd" clip-rule="evenodd" d="M2.96064 17.3139H12.4056C12.7122 17.3139 12.9586 17.5679 12.9586 17.8782V18.6683C12.9586 19.0183 12.7223 19.2892 12.4056 19.2892H2.96064C2.64396 19.2892 2.40766 19.0239 2.40766 18.6683V17.8782C2.40766 17.5679 2.65391 17.3139 2.96064 17.3139ZM10.2341 13.183L7.92192 16.3997C7.8616 16.4788 7.7761 16.5238 7.68562 16.5238C7.59514 16.5238 7.50979 16.4786 7.44947 16.3997L5.13727 13.183C5.06187 13.0814 5.05177 12.9404 5.10213 12.8219C5.15235 12.7033 5.25791 12.63 5.37357 12.63H6.27837V8.90541C6.27837 8.53295 6.52462 8.22821 6.83134 8.22821H8.54035C8.84692 8.22821 9.09333 8.53295 9.09333 8.90541V12.63H9.99812C10.1138 12.63 10.2193 12.7033 10.2696 12.8219C10.3198 12.9404 10.3047 13.0814 10.2344 13.183H10.2341ZM3.26223 24.8703H12.104C12.2699 24.8703 12.4056 25.0227 12.4056 25.2089C12.4056 25.3952 12.2699 25.5475 12.104 25.5475H3.26223C3.09636 25.5475 2.96064 25.3952 2.96064 25.2089C2.96064 25.0227 3.09636 24.8703 3.26223 24.8703ZM1.30682 27.5228H14.0644C14.7732 27.5228 15.3714 26.8512 15.3714 26.0555V1.46733C15.3714 0.671618 14.7732 0 14.0644 0H12.5564V1.74939C12.5564 2.29674 12.2096 2.70882 11.7522 2.70882H9.54558H3.6142C3.15683 2.70882 2.80999 2.29691 2.80999 1.74939V0H1.30697C0.598219 0 0 0.671618 0 1.46733V26.0555C0 26.8512 0.598219 27.5228 1.30697 27.5228H1.30682Z" fill="#CDC4FF"/>
</svg>
