<svg width="18" height="18" viewBox="0 0 18 18" fill="none" xmlns="http://www.w3.org/2000/svg">
<path d="M9.13699 12.2457C9.33691 12.2457 9.48979 12.181 9.59563 12.0517L14.2173 7.07721C14.3349 6.95961 14.3908 6.81261 14.3849 6.63621C14.379 6.45981 14.3143 6.31281 14.1909 6.19521C14.0674 6.07761 13.9174 6.01881 13.741 6.01881C13.5646 6.01881 13.4176 6.08349 13.3 6.21285L9.13699 10.6934L4.97395 6.21285C4.85635 6.08349 4.70935 6.01881 4.53295 6.01881C4.35655 6.01881 4.20661 6.07761 4.08313 6.19521C3.95965 6.31281 3.89497 6.45981 3.88909 6.63621C3.88321 6.81261 3.93907 6.95961 4.05667 7.07721L8.67835 12.0517C8.80771 12.181 8.96059 12.2457 9.13699 12.2457Z" fill="#52525B"/>
</svg>
