<svg width="237" height="273" viewBox="0 0 237 273" fill="none" xmlns="http://www.w3.org/2000/svg">
<path d="M188.07 62.3442C187.563 64.3717 187.842 68.8828 193.012 70.7075" stroke="#F0F0F0" stroke-width="0.7603"/>
<path d="M199.199 249.378H201.48V248.238" stroke="#F0F0F0" stroke-width="0.7603"/>
<circle cx="214.404" cy="270.667" r="2.2809" fill="#FEF4DE" fill-opacity="0.7"/>
<circle cx="166.506" cy="258.502" r="2.2809" fill="#DEF6FE" fill-opacity="0.3"/>
<circle cx="144.076" cy="205.661" r="4.18165" fill="#FEF4E0"/>
<circle cx="147.118" cy="147.878" r="5.70225" fill="#FEF4E0"/>
<circle cx="172.207" cy="130.391" r="1.90075" fill="#FEF4E0"/>
<circle cx="110.623" cy="71.848" r="1.90075" fill="#F6F2FF"/>
<circle cx="140.276" cy="57.4022" r="1.90075" fill="#DDF5FB"/>
<circle cx="181.332" cy="30.7919" r="1.90075" fill="#FFF4DC"/>
<path d="M178.246 102.074L167.191 100.481L170.556 110.208L178.246 102.074Z" fill="#70F5B8"/>
<path d="M146.405 94.4641C146.788 93.5165 146.841 92.4679 146.557 91.4864C146.272 90.5049 145.666 89.6474 144.837 89.0512C144.007 88.455 143.001 88.1547 141.98 88.1985C140.959 88.2423 139.982 88.6276 139.206 89.2927C138.43 89.9577 137.9 90.864 137.701 91.8663C137.502 92.8685 137.645 93.9087 138.107 94.82C138.569 95.7313 139.324 96.461 140.251 96.8921C141.177 97.3232 142.221 97.4308 143.216 97.1975" stroke="#EFE8DB" stroke-opacity="0.8" stroke-width="0.7603"/>
<path d="M238.247 239.688C237.235 239.831 236.3 240.309 235.592 241.046C234.884 241.783 234.445 242.736 234.343 243.753C234.242 244.77 234.485 245.791 235.033 246.654C235.582 247.516 236.404 248.169 237.368 248.508C238.332 248.848 239.381 248.854 240.349 248.525C241.317 248.197 242.146 247.553 242.704 246.697C243.262 245.841 243.517 244.822 243.427 243.804C243.337 242.786 242.908 241.828 242.208 241.083" stroke="#F0EADA" stroke-opacity="0.8" stroke-width="0.7603"/>
<path d="M43.8233 154.312C42.5709 157.689 37.9067 164.868 29.268 166.566C25.2564 166.84 17.3194 157.839 25.8587 153.497C31.7497 150.657 33.8317 173.379 18.0681 175.916C14.0604 175.021 9.13464 168.98 18.3804 163.238C20.7106 161.79 25.5193 167.891 16.9835 177.531C11.4082 182.693 1.88895 183.189 4.88218 165.89" stroke="#7EEFBB" stroke-opacity="0.9" stroke-width="1.5206"/>
<rect x="40.1699" y="100.359" width="5.3221" height="5.3221" transform="rotate(23.879 40.1699 100.359)" fill="#FFEE74"/>
<path d="M179.705 52.4604C177.171 58.7963 175.372 74.053 188.449 84.393" stroke="#F0F0F0" stroke-width="0.7603"/>
<path d="M82.2693 35.8902C82.6352 35.2866 83.5545 35.464 83.6696 36.1603L84.2425 39.6262C84.2787 39.8452 84.4087 40.0374 84.5985 40.1524L87.6025 41.9736C88.2061 42.3395 88.0287 43.2587 87.3324 43.3738L83.8664 43.9468C83.6475 43.983 83.4553 44.113 83.3403 44.3027L81.5191 47.3068C81.1532 47.9103 80.2339 47.733 80.1188 47.0366L79.5459 43.5707C79.5097 43.3518 79.3797 43.1596 79.1899 43.0445L76.1859 41.2234C75.5823 40.8575 75.7597 39.9382 76.456 39.8231L79.922 39.2502C80.1409 39.214 80.3331 39.0839 80.4481 38.8942L82.2693 35.8902Z" fill="#FFEC00"/>
<path d="M81.8208 209.479L83.8187 212.283L87.2479 212.592L84.4437 214.59L84.1349 218.019L82.1371 215.215L78.7078 214.906L81.5121 212.908L81.8208 209.479Z" fill="#FFEC00" fill-opacity="0.2"/>
<path d="M60.8242 168.026L65.386 165.392L65.386 170.66L60.8242 168.026Z" fill="#A77DF4"/>
<path d="M187.795 3.04083L192.357 0.407078L192.357 5.67459L187.795 3.04083Z" fill="#A77DF4"/>
<path d="M114.805 160.423L112.171 155.861L117.438 155.861L114.805 160.423Z" fill="#FED479"/>
<path d="M108.723 135.886C113.158 132.972 125.297 128.207 138.374 132.465" stroke="#F0F0F0" stroke-width="0.7603"/>
<rect x="120.887" y="139.135" width="4.5618" height="1.5206" fill="#F0F0F0"/>
</svg>
