<svg width="44" height="39" viewBox="0 0 44 39" fill="none" xmlns="http://www.w3.org/2000/svg">
<path d="M10.7549 0.183655C12.6617 -0.141248 14.6172 -0.0340702 16.4771 0.497286C18.3371 1.02864 20.0541 1.97063 21.5015 3.25382L21.5812 3.32491L21.6545 3.26028C23.036 2.04794 24.6601 1.14412 26.4185 0.609131C28.1769 0.0741408 30.0292 -0.0797239 31.8517 0.157801L32.3817 0.235363C34.6791 0.632026 36.8264 1.64259 38.5963 3.16003C40.3662 4.67747 41.6928 6.64531 42.4356 8.85516C43.1784 11.065 43.3098 13.4346 42.8158 15.713C42.3218 17.9914 41.2208 20.0938 39.6295 21.7976L39.2417 22.1962L39.1382 22.2845L23.0872 38.1826C22.7168 38.5492 22.2261 38.7691 21.7059 38.8016C21.1858 38.834 20.6715 38.6769 20.2584 38.3592L20.0558 38.1826L3.91219 22.1919C2.20199 20.5278 0.98573 18.423 0.398111 16.1103C-0.189509 13.7976 -0.125558 11.3674 0.582881 9.08888C1.29132 6.81032 2.6166 4.7723 4.41195 3.20054C6.2073 1.62877 8.40265 0.584599 10.7549 0.183655Z" fill="white"/>
</svg>
