<svg width="20" height="20" viewBox="0 0 20 20" fill="none" xmlns="http://www.w3.org/2000/svg">
<path d="M13.2 10C13.2 10.6133 13.02 11.2067 12.66 11.78C12.3267 12.3 11.8467 12.6933 11.22 12.96C10.6333 13.2 10.0167 13.26 9.37 13.14C8.72333 13.02 8.17333 12.7333 7.72 12.28C7.26667 11.8267 6.97667 11.27 6.85 10.61C6.72333 9.95 6.78667 9.34 7.04 8.78C7.29333 8.18 7.69 7.7 8.23 7.34C8.77 6.98 9.36 6.8 10 6.8C10.4267 6.8 10.8367 6.88333 11.23 7.05C11.6233 7.21667 11.9667 7.44667 12.26 7.74C12.5533 8.03333 12.7833 8.37667 12.95 8.77C13.1167 9.16333 13.2 9.57333 13.2 10ZM20 5.6V14.4C20 15.1333 19.8567 15.8433 19.57 16.53C19.2833 17.2167 18.8767 17.8233 18.35 18.35C17.8233 18.8767 17.2167 19.2833 16.53 19.57C15.8433 19.8567 15.1333 20 14.4 20H5.6C4.86667 20 4.15667 19.8567 3.47 19.57C2.78333 19.2833 2.17667 18.8767 1.65 18.35C1.12333 17.8233 0.716667 17.2167 0.43 16.53C0.143333 15.8433 0 15.1333 0 14.4V5.6C0 4.86667 0.143333 4.15667 0.43 3.47C0.716667 2.78333 1.12333 2.17667 1.65 1.65C2.17667 1.12333 2.78333 0.716667 3.47 0.43C4.15667 0.143333 4.86667 0 5.6 0H14.4C15.1333 0 15.8433 0.143333 16.53 0.43C17.2167 0.716667 17.8233 1.12333 18.35 1.65C18.8767 2.17667 19.2833 2.78333 19.57 3.47C19.8567 4.15667 20 4.86667 20 5.6ZM14.78 10C14.78 9.04 14.5133 8.14667 13.98 7.32C13.7267 6.93333 13.4133 6.59 13.04 6.29C12.6667 5.99 12.2667 5.74667 11.84 5.56C10.9333 5.18667 10.0067 5.09333 9.06 5.28C8.08667 5.49333 7.27333 5.93333 6.62 6.6C5.92667 7.29333 5.48667 8.11333 5.3 9.06C5.20667 9.51333 5.18333 9.98 5.23 10.46C5.27667 10.94 5.39 11.3967 5.57 11.83C5.75 12.2633 5.99 12.6633 6.29 13.03C6.59 13.3967 6.94 13.7133 7.34 13.98C8.16667 14.5133 9.06 14.78 10.02 14.78C10.6467 14.78 11.2533 14.6567 11.84 14.41C12.4267 14.1633 12.9467 13.8133 13.4 13.36C13.8533 12.9067 14.2 12.39 14.44 11.81C14.68 11.23 14.8067 10.62 14.82 9.98L14.78 10ZM16.38 4.8C16.38 4.54667 16.3133 4.32667 16.18 4.14C16.0333 3.92667 15.8533 3.77667 15.64 3.69C15.4267 3.60333 15.2 3.58 14.96 3.62C14.72 3.66 14.51 3.77 14.33 3.95C14.15 4.13 14.04 4.33667 14 4.57C13.96 4.80333 13.98 5.03333 14.06 5.26C14.1267 5.44667 14.2733 5.62667 14.5 5.8C14.7133 5.94667 14.9333 6.02 15.16 6.02C15.4667 6.02 15.7533 5.9 16.02 5.66C16.2467 5.43333 16.36 5.15333 16.36 4.82L16.38 4.8Z" fill="#27272A"/>
</svg>
