<svg width="20" height="20" viewBox="0 0 20 20" fill="none" xmlns="http://www.w3.org/2000/svg">
<path d="M1 2.99965C1 2.41298 1.20333 1.93298 1.61 1.55965C2.01667 1.18632 2.54333 0.999649 3.19 0.999649C3.83667 0.999649 4.35667 1.18632 4.75 1.55965C5.14333 1.93298 5.34 2.42632 5.34 3.03965C5.34 3.59965 5.14667 4.05965 4.76 4.41965C4.33333 4.80632 3.8 4.99965 3.16 4.99965H3.14C2.5 4.99965 1.98333 4.80632 1.59 4.41965C1.19667 4.03298 1 3.55965 1 2.99965ZM1.22 18.1396V6.57965H5.08V18.1396H1.22ZM7.22 18.1396H11.08V11.6796C11.08 11.253 11.1267 10.9396 11.22 10.7396C11.3933 10.3263 11.64 9.99965 11.96 9.75965C12.28 9.47965 12.6933 9.33965 13.2 9.33965C14.4933 9.33965 15.14 10.213 15.14 11.9596V18.1396H19V11.4996C19 9.77965 18.5967 8.48298 17.79 7.60965C16.9833 6.73632 15.9133 6.29965 14.58 6.29965C13.0867 6.29965 11.92 6.93965 11.08 8.21965V8.25965H11.06L11.08 8.21965V6.57965H7.22C7.24667 7.05965 7.26 8.20632 7.26 10.0196C7.26 11.0063 7.25333 12.9463 7.24 15.8396L7.22 18.1396Z" fill="#27272A"/>
</svg>
