<svg width="187" height="27" viewBox="0 0 187 27" fill="none" xmlns="http://www.w3.org/2000/svg">
<path d="M-0.000781223 25.632V0.431956H4.85922V21.852H15.9472V25.632H-0.000781223ZM26.214 26.064C24.486 26.064 22.926 25.668 21.534 24.876C20.142 24.084 19.038 22.98 18.222 21.564C17.43 20.148 17.034 18.528 17.034 16.704C17.034 14.856 17.442 13.236 18.258 11.844C19.074 10.428 20.178 9.32396 21.57 8.53196C22.962 7.73996 24.51 7.34396 26.214 7.34396C27.942 7.34396 29.502 7.73996 30.894 8.53196C32.286 9.32396 33.378 10.428 34.17 11.844C34.986 13.236 35.394 14.856 35.394 16.704C35.394 18.552 34.986 20.184 34.17 21.6C33.354 22.992 32.25 24.084 30.858 24.876C29.49 25.668 27.942 26.064 26.214 26.064ZM26.178 21.96C26.97 21.96 27.678 21.768 28.302 21.384C28.95 20.976 29.466 20.388 29.85 19.62C30.258 18.828 30.462 17.856 30.462 16.704C30.462 15.528 30.258 14.556 29.85 13.788C29.466 12.996 28.95 12.408 28.302 12.024C27.678 11.64 26.994 11.448 26.25 11.448C25.482 11.448 24.774 11.64 24.126 12.024C23.478 12.408 22.962 12.996 22.578 13.788C22.194 14.556 22.002 15.528 22.002 16.704C22.002 17.856 22.194 18.828 22.578 19.62C22.962 20.388 23.466 20.976 24.09 21.384C24.738 21.768 25.434 21.96 26.178 21.96ZM46.8155 26.064C45.0875 26.064 43.5275 25.668 42.1355 24.876C40.7435 24.084 39.6395 22.98 38.8235 21.564C38.0315 20.148 37.6355 18.528 37.6355 16.704C37.6355 14.856 38.0435 13.236 38.8595 11.844C39.6755 10.428 40.7795 9.32396 42.1715 8.53196C43.5635 7.73996 45.1115 7.34396 46.8155 7.34396C48.5435 7.34396 50.1035 7.73996 51.4955 8.53196C52.8875 9.32396 53.9795 10.428 54.7715 11.844C55.5875 13.236 55.9955 14.856 55.9955 16.704C55.9955 18.552 55.5875 20.184 54.7715 21.6C53.9555 22.992 52.8515 24.084 51.4595 24.876C50.0915 25.668 48.5435 26.064 46.8155 26.064ZM46.7795 21.96C47.5715 21.96 48.2795 21.768 48.9035 21.384C49.5515 20.976 50.0675 20.388 50.4515 19.62C50.8595 18.828 51.0635 17.856 51.0635 16.704C51.0635 15.528 50.8595 14.556 50.4515 13.788C50.0675 12.996 49.5515 12.408 48.9035 12.024C48.2795 11.64 47.5955 11.448 46.8515 11.448C46.0835 11.448 45.3755 11.64 44.7275 12.024C44.0795 12.408 43.5635 12.996 43.1795 13.788C42.7955 14.556 42.6035 15.528 42.6035 16.704C42.6035 17.856 42.7955 18.828 43.1795 19.62C43.5635 20.388 44.0675 20.976 44.6915 21.384C45.3395 21.768 46.0355 21.96 46.7795 21.96ZM70.8371 25.632L63.0611 15.804L69.9371 7.77596H75.6971L66.8051 17.82L66.7691 13.968L76.8851 25.632H70.8371ZM58.9211 25.632V0.251956H63.7811V25.632H58.9211ZM97.6082 25.632L84.0362 12.024C82.9562 10.944 82.2002 9.94796 81.7682 9.03596C81.3362 8.12396 81.1202 7.18796 81.1202 6.22796C81.1202 5.07596 81.4082 4.03196 81.9842 3.09596C82.5602 2.13596 83.4002 1.37996 84.5042 0.827958C85.6322 0.275958 87.0002 -4.24385e-05 88.6082 -4.24385e-05C90.1922 -4.24385e-05 91.5242 0.287957 92.6042 0.863957C93.6842 1.43996 94.5002 2.20796 95.0522 3.16796C95.6042 4.10396 95.8922 5.15996 95.9162 6.33596H91.2722C91.2482 5.47196 90.9722 4.82396 90.4442 4.39196C89.9162 3.93596 89.2682 3.70796 88.5002 3.70796C87.6362 3.70796 86.9522 3.93596 86.4482 4.39196C85.9442 4.82396 85.6922 5.41196 85.6922 6.15596C85.6922 6.73196 85.8602 7.33196 86.1962 7.95596C86.5562 8.55596 87.1082 9.22796 87.8522 9.97196L103.296 25.632H97.6082ZM87.2402 26.028C85.3922 26.028 83.7602 25.716 82.3442 25.092C80.9522 24.444 79.8722 23.544 79.1042 22.392C78.3602 21.24 77.9882 19.896 77.9882 18.36C77.9882 17.16 78.2282 16.044 78.7082 15.012C79.1882 13.98 79.9082 13.068 80.8682 12.276C81.8282 11.46 83.0162 10.812 84.4322 10.332L85.1522 10.08L87.4202 12.996L86.7002 13.248C85.3802 13.704 84.3722 14.352 83.6762 15.192C83.0042 16.008 82.6682 16.956 82.6682 18.036C82.6682 18.804 82.8482 19.5 83.2082 20.124C83.5922 20.724 84.1442 21.192 84.8642 21.528C85.5842 21.864 86.4482 22.032 87.4562 22.032C88.8002 22.032 89.9762 21.78 90.9842 21.276C92.0162 20.748 92.8802 19.968 93.5762 18.936C94.0562 18.24 94.4282 17.448 94.6922 16.56C94.9802 15.648 95.1842 14.64 95.3042 13.536L95.4842 12.204H100.056L99.7682 13.752C99.6242 15.336 99.3002 16.788 98.7962 18.108C98.3162 19.404 97.6802 20.556 96.8882 21.564C95.7602 23.004 94.3922 24.108 92.7842 24.876C91.1762 25.644 89.3282 26.028 87.2402 26.028ZM105.327 25.632V0.431956H115.695C117.423 0.431956 118.887 0.707956 120.087 1.25996C121.287 1.81196 122.199 2.57996 122.823 3.56396C123.447 4.52396 123.759 5.63996 123.759 6.91196C123.759 8.18396 123.483 9.25196 122.931 10.116C122.379 10.98 121.647 11.652 120.735 12.132C119.823 12.588 118.839 12.852 117.783 12.924L118.359 12.528C119.511 12.576 120.531 12.888 121.419 13.464C122.331 14.016 123.039 14.76 123.543 15.696C124.071 16.632 124.335 17.652 124.335 18.756C124.335 20.1 124.011 21.288 123.363 22.32C122.715 23.352 121.767 24.168 120.519 24.768C119.295 25.344 117.795 25.632 116.019 25.632H105.327ZM110.187 21.672H115.263C116.583 21.672 117.603 21.372 118.323 20.772C119.043 20.172 119.403 19.308 119.403 18.18C119.403 17.052 119.031 16.176 118.287 15.552C117.543 14.904 116.511 14.58 115.191 14.58H110.187V21.672ZM110.187 10.944H114.903C116.151 10.944 117.111 10.656 117.783 10.08C118.455 9.50396 118.791 8.68796 118.791 7.63196C118.791 6.59996 118.455 5.79596 117.783 5.21996C117.111 4.61996 116.127 4.31996 114.831 4.31996H110.187V10.944ZM135.831 26.064C134.103 26.064 132.543 25.668 131.151 24.876C129.759 24.084 128.655 22.98 127.839 21.564C127.047 20.148 126.651 18.528 126.651 16.704C126.651 14.856 127.059 13.236 127.875 11.844C128.691 10.428 129.795 9.32396 131.187 8.53196C132.579 7.73996 134.127 7.34396 135.831 7.34396C137.559 7.34396 139.119 7.73996 140.511 8.53196C141.903 9.32396 142.995 10.428 143.787 11.844C144.603 13.236 145.011 14.856 145.011 16.704C145.011 18.552 144.603 20.184 143.787 21.6C142.971 22.992 141.867 24.084 140.475 24.876C139.107 25.668 137.559 26.064 135.831 26.064ZM135.795 21.96C136.587 21.96 137.295 21.768 137.919 21.384C138.567 20.976 139.083 20.388 139.467 19.62C139.875 18.828 140.079 17.856 140.079 16.704C140.079 15.528 139.875 14.556 139.467 13.788C139.083 12.996 138.567 12.408 137.919 12.024C137.295 11.64 136.611 11.448 135.867 11.448C135.099 11.448 134.391 11.64 133.743 12.024C133.095 12.408 132.579 12.996 132.195 13.788C131.811 14.556 131.619 15.528 131.619 16.704C131.619 17.856 131.811 18.828 132.195 19.62C132.579 20.388 133.083 20.976 133.707 21.384C134.355 21.768 135.051 21.96 135.795 21.96ZM156.433 26.064C154.705 26.064 153.145 25.668 151.753 24.876C150.361 24.084 149.257 22.98 148.441 21.564C147.649 20.148 147.253 18.528 147.253 16.704C147.253 14.856 147.661 13.236 148.477 11.844C149.293 10.428 150.397 9.32396 151.789 8.53196C153.181 7.73996 154.729 7.34396 156.433 7.34396C158.161 7.34396 159.721 7.73996 161.113 8.53196C162.505 9.32396 163.597 10.428 164.389 11.844C165.205 13.236 165.613 14.856 165.613 16.704C165.613 18.552 165.205 20.184 164.389 21.6C163.573 22.992 162.469 24.084 161.077 24.876C159.709 25.668 158.161 26.064 156.433 26.064ZM156.397 21.96C157.189 21.96 157.897 21.768 158.521 21.384C159.169 20.976 159.685 20.388 160.069 19.62C160.477 18.828 160.681 17.856 160.681 16.704C160.681 15.528 160.477 14.556 160.069 13.788C159.685 12.996 159.169 12.408 158.521 12.024C157.897 11.64 157.213 11.448 156.469 11.448C155.701 11.448 154.993 11.64 154.345 12.024C153.697 12.408 153.181 12.996 152.797 13.788C152.413 14.556 152.221 15.528 152.221 16.704C152.221 17.856 152.413 18.828 152.797 19.62C153.181 20.388 153.685 20.976 154.309 21.384C154.957 21.768 155.653 21.96 156.397 21.96ZM180.454 25.632L172.678 15.804L179.554 7.77596H185.314L176.422 17.82L176.386 13.968L186.502 25.632H180.454ZM168.538 25.632V0.251956H173.398V25.632H168.538Z" fill="url(#paint0_linear_572_6799)"/>
<defs>
<linearGradient id="paint0_linear_572_6799" x1="60.8332" y1="123.035" x2="-25.2541" y2="-8.25595" gradientUnits="userSpaceOnUse">
<stop stop-color="#8B5CF6"/>
<stop offset="1" stop-color="#5B21B6"/>
</linearGradient>
</defs>
</svg>
