<svg width="64" height="64" viewBox="0 0 64 64" fill="none" xmlns="http://www.w3.org/2000/svg">
<path fill-rule="evenodd" clip-rule="evenodd" d="M35.3992 61.9031L37.1297 58.9785C38.4707 56.7115 39.1412 55.5749 40.2204 54.9491C41.2996 54.3201 42.6566 54.2977 45.3705 54.2498C49.3807 54.1828 51.8935 53.9369 54.0008 53.0621C55.9377 52.2598 57.6976 51.0839 59.18 49.6015C60.6625 48.119 61.8384 46.3591 62.6407 44.4222C63.8571 41.4912 63.8571 37.7715 63.8571 30.3321V27.1393C63.8571 16.6891 63.8571 11.4624 61.504 7.62454C60.1884 5.47638 58.3832 3.67003 56.2358 2.35314C52.3948 0 47.1681 0 36.7179 0H27.1393C16.6891 0 11.4624 0 7.62454 2.35314C5.47638 3.66873 3.67003 5.47398 2.35314 7.62135C0 11.4624 0 16.6923 0 27.1393V30.3321C0 37.7715 3.96477e-07 41.4912 1.21329 44.4222C2.01593 46.3594 3.19235 48.1195 4.67535 49.6019C6.15835 51.0844 7.91887 52.2602 9.85635 53.0621C11.9636 53.9369 14.4764 54.1796 18.4866 54.2498C21.2006 54.2977 22.5575 54.3201 23.6367 54.9491C24.7127 55.5749 25.3864 56.7083 26.7274 58.9785L28.4579 61.9031C30.0001 64.5085 33.8539 64.5085 35.3992 61.9031ZM44.7 31.9286C45.5468 31.9286 46.3589 31.5922 46.9577 30.9934C47.5565 30.3946 47.8929 29.5825 47.8929 28.7357C47.8929 27.8889 47.5565 27.0768 46.9577 26.478C46.3589 25.8792 45.5468 25.5429 44.7 25.5429C43.8532 25.5429 43.0411 25.8792 42.4423 26.478C41.8435 27.0768 41.5071 27.8889 41.5071 28.7357C41.5071 29.5825 41.8435 30.3946 42.4423 30.9934C43.0411 31.5922 43.8532 31.9286 44.7 31.9286ZM35.1214 28.7357C35.1214 29.5825 34.785 30.3946 34.1863 30.9934C33.5875 31.5922 32.7754 31.9286 31.9286 31.9286C31.0818 31.9286 30.2697 31.5922 29.6709 30.9934C29.0721 30.3946 28.7357 29.5825 28.7357 28.7357C28.7357 27.8889 29.0721 27.0768 29.6709 26.478C30.2697 25.8792 31.0818 25.5429 31.9286 25.5429C32.7754 25.5429 33.5875 25.8792 34.1863 26.478C34.785 27.0768 35.1214 27.8889 35.1214 28.7357ZM19.1571 31.9286C20.0039 31.9286 20.8161 31.5922 21.4148 30.9934C22.0136 30.3946 22.35 29.5825 22.35 28.7357C22.35 27.8889 22.0136 27.0768 21.4148 26.478C20.8161 25.8792 20.0039 25.5429 19.1571 25.5429C18.3103 25.5429 17.4982 25.8792 16.8995 26.478C16.3007 27.0768 15.9643 27.8889 15.9643 28.7357C15.9643 29.5825 16.3007 30.3946 16.8995 30.9934C17.4982 31.5922 18.3103 31.9286 19.1571 31.9286Z" fill="white"/>
</svg>
