<svg width="56" height="55" viewBox="0 0 56 55" fill="none" xmlns="http://www.w3.org/2000/svg">
<rect width="56" height="55" rx="16" fill="white"/>
<path fill-rule="evenodd" clip-rule="evenodd" d="M34.1702 43.0001H21.4128C20.0824 43.0001 19 41.7852 19 40.2912V15.7089C19 14.2153 20.0821 13.0001 21.4128 13.0001H34.1704C35.5007 13.0001 36.5832 14.215 36.5832 15.7089V40.297C36.5832 41.7885 35.4977 43.0001 34.1704 43.0001H34.1702ZM33.1648 14.806V15.9911C33.1648 16.8237 32.6155 17.5148 31.8579 17.5148H23.7199C22.9622 17.5148 22.4129 16.8237 22.4129 15.9911V14.806H21.4126C20.9813 14.806 20.6084 15.2247 20.6084 15.7089V40.297C20.6084 40.7812 20.9813 41.1999 21.4126 41.1999H34.1702C34.6015 41.1999 34.9744 40.7812 34.9744 40.297V15.7089C34.9744 15.2247 34.6015 14.806 34.1702 14.806H33.1648ZM28.4219 30.9912H32.5114C33.0742 30.9912 33.567 31.4749 33.567 32.1199V32.91C33.567 33.574 33.1032 34.0952 32.5114 34.0952H23.0664C22.4723 34.0952 22.0109 33.5771 22.0109 32.91V32.1199C22.0109 31.4749 22.5037 30.9912 23.0664 30.9912H27.1609L24.8567 27.7858C24.6556 27.5148 24.6194 27.1379 24.7539 26.8208C24.8872 26.5062 25.1692 26.3071 25.4792 26.3071H25.8814V23.1468C25.8814 22.484 26.3346 21.9053 26.937 21.9053H28.646C29.2485 21.9053 29.7016 22.4841 29.7016 23.1468V26.3071H30.1038C30.4138 26.3071 30.6957 26.5062 30.829 26.8206C30.9606 27.131 30.9244 27.5002 30.7367 27.7711C30.7347 27.774 30.7331 27.7762 30.7311 27.7789L28.4221 30.991L28.4219 30.9912ZM32.2098 40.3534H23.368C22.9247 40.3534 22.5638 39.9482 22.5638 39.4505C22.5638 38.9527 22.9247 38.5476 23.368 38.5476H32.2098C32.6532 38.5476 33.0141 38.9527 33.0141 39.4505C33.0141 39.9482 32.6532 40.3534 32.2098 40.3534ZM27.0803 27.9966L27.7914 28.9863L28.5027 27.9966C28.2585 27.8413 28.093 27.5469 28.093 27.21V23.7168H27.4898V27.21C27.4898 27.5468 27.3246 27.8413 27.0803 27.9964V27.9966ZM24.8334 15.709C24.7646 15.5761 24.7252 15.4219 24.7252 15.2575C24.7252 15.0931 24.7646 14.9389 24.8334 14.806H24.0216V15.709H24.8334ZM28.0353 15.709H28.847V14.806H28.0353C28.104 14.9389 28.1434 15.0931 28.1434 15.2575C28.1434 15.4219 28.104 15.5761 28.0353 15.709ZM30.4556 15.709H31.5564V14.806H30.4556V15.709Z" fill="#9C8AFB"/>
<path fill-rule="evenodd" clip-rule="evenodd" d="M27.7869 30.7652C27.6964 30.7652 27.611 30.7199 27.5507 30.6411L25.2385 27.4243C25.1631 27.3228 25.153 27.1817 25.2034 27.0632C25.2536 26.9447 25.3592 26.8714 25.4748 26.8714H26.3796V23.1468C26.3796 22.7743 26.6259 22.4696 26.9326 22.4696H28.6416C28.9482 22.4696 29.1946 22.7743 29.1946 23.1468V26.8714H30.0994C30.215 26.8714 30.3206 26.9447 30.3708 27.0632C30.421 27.1817 30.4059 27.3228 30.3357 27.4243L28.0235 30.6411C27.9631 30.7201 27.8776 30.7652 27.7872 30.7652H27.7869ZM34.1657 42.4356H21.4082C20.3576 42.4356 19.498 41.4762 19.498 40.2911V15.7087C19.498 14.5292 20.3526 13.5641 21.4082 13.5641H23.2128H29.6468H32.3562H34.1658C35.2164 13.5641 36.076 14.5236 36.076 15.7087V40.2968C36.076 41.4763 35.2164 42.4356 34.1658 42.4356H34.1657ZM21.4082 14.2415C20.6995 14.2415 20.1012 14.9131 20.1012 15.7089V40.297C20.1012 41.0927 20.6995 41.7643 21.4082 41.7643H34.1658C34.8746 41.7643 35.4728 41.0927 35.4728 40.297V15.7089C35.4728 14.9131 34.8746 14.2415 34.1658 14.2415H32.6578V15.9909C32.6578 16.5383 32.311 16.9503 31.8536 16.9503H29.647H23.7156C23.2582 16.9503 22.9114 16.5384 22.9114 15.9909V14.2415H21.4084H21.4082ZM23.5144 14.2415V15.9909C23.5144 16.1264 23.5747 16.2731 23.7154 16.2731H29.3452V14.2415H23.5144ZM29.9484 16.2731H31.8535C31.9892 16.2731 32.0545 16.1264 32.0545 15.9909V14.2415H29.9483V16.2731H29.9484ZM32.2054 39.7889H23.3636C23.1978 39.7889 23.062 39.6365 23.062 39.4503C23.062 39.2641 23.1978 39.1117 23.3636 39.1117H32.2054C32.3713 39.1117 32.507 39.2641 32.507 39.4503C32.507 39.6365 32.3713 39.7889 32.2054 39.7889ZM27.3346 15.5959H25.525C25.3592 15.5959 25.2234 15.4436 25.2234 15.2573C25.2234 15.0711 25.3592 14.9187 25.525 14.9187H27.3346C27.5005 14.9187 27.6362 15.0711 27.6362 15.2573C27.6362 15.4436 27.5005 15.5959 27.3346 15.5959ZM32.507 33.5305H23.062C22.7454 33.5305 22.5091 33.2652 22.5091 32.9097V32.1196C22.5091 31.8092 22.7553 31.5553 23.062 31.5553H32.507C32.8136 31.5553 33.06 31.8092 33.06 32.1196V32.9097C33.06 33.2596 32.8237 33.5305 32.507 33.5305ZM23.1124 32.8533H32.4568V32.2325H23.1124V32.8533ZM26.1083 27.5486L27.7872 29.885L29.466 27.5486H28.893C28.7271 27.5486 28.5914 27.3962 28.5914 27.21V23.1524H26.983V27.21C26.983 27.3962 26.8472 27.5486 26.6814 27.5486H26.1083Z" fill="#CFC6FF"/>
<path fill-rule="evenodd" clip-rule="evenodd" d="M26.1152 27.5491L27.7941 29.8854L29.4729 27.5491H28.8999C28.734 27.5491 28.5983 27.3967 28.5983 27.2105V23.1528H26.9899V27.2105C26.9899 27.3967 26.8541 27.5491 26.6883 27.5491H26.1152Z" fill="#9C8AFB"/>
<path fill-rule="evenodd" clip-rule="evenodd" d="M32.4618 32.2324H23.1172V32.8531H32.4618V32.2324Z" fill="#9C8AFB"/>
<path fill-rule="evenodd" clip-rule="evenodd" d="M23.0642 31.5554H32.5091C32.8157 31.5554 33.0621 31.8093 33.0621 32.1197V32.9098C33.0621 33.2597 32.8258 33.5306 32.5091 33.5306H23.0642C22.7475 33.5306 22.5112 33.2653 22.5112 32.9098V32.1197C22.5112 31.8093 22.7574 31.5554 23.0642 31.5554ZM30.3376 27.4244L28.0254 30.6412C27.9651 30.7202 27.8796 30.7652 27.7891 30.7652C27.6987 30.7652 27.6133 30.72 27.553 30.6412L25.2408 27.4244C25.1654 27.3228 25.1553 27.1818 25.2056 27.0633C25.2559 26.9448 25.3614 26.8715 25.4771 26.8715H26.3819V23.1469C26.3819 22.7744 26.6281 22.4697 26.9349 22.4697H28.6439C28.9504 22.4697 29.1968 22.7744 29.1968 23.1469V26.8715H30.1016C30.2173 26.8715 30.3229 26.9448 30.3731 27.0633C30.4233 27.1818 30.4082 27.3228 30.3379 27.4244H30.3376ZM23.3658 39.1118H32.2075C32.3734 39.1118 32.5091 39.2642 32.5091 39.4504C32.5091 39.6366 32.3734 39.789 32.2075 39.789H23.3658C23.1999 39.789 23.0642 39.6366 23.0642 39.4504C23.0642 39.2642 23.1999 39.1118 23.3658 39.1118ZM21.4103 41.7642H34.1679C34.8767 41.7642 35.4749 41.0926 35.4749 40.2969V15.7088C35.4749 14.9131 34.8767 14.2415 34.1679 14.2415H32.6599V15.9908C32.6599 16.5382 32.3131 16.9503 31.8557 16.9503H29.6491H23.7177C23.2603 16.9503 22.9135 16.5384 22.9135 15.9908V14.2415H21.4105C20.7017 14.2415 20.1035 14.9131 20.1035 15.7088V40.2969C20.1035 41.0926 20.7017 41.7642 21.4105 41.7642H21.4103Z" fill="#CDC4FF"/>
<path fill-rule="evenodd" clip-rule="evenodd" d="M29.9533 16.2731H31.8583C31.994 16.2731 32.0593 16.1263 32.0593 15.9908V14.2415H29.9531V16.2731H29.9533Z" fill="#9C8AFB"/>
<path fill-rule="evenodd" clip-rule="evenodd" d="M29.3503 16.2731V14.2415H23.5195V15.9908C23.5195 16.1263 23.5799 16.2731 23.7205 16.2731H29.3503ZM27.6413 15.2573C27.6413 15.4435 27.5056 15.5959 27.3397 15.5959H25.5301C25.3643 15.5959 25.2285 15.4435 25.2285 15.2573C25.2285 15.071 25.3643 14.9187 25.5301 14.9187H27.3397C27.5056 14.9187 27.6413 15.071 27.6413 15.2573Z" fill="#9C8AFB"/>
</svg>
