<svg width="24" height="24" viewBox="0 0 24 24" fill="none" xmlns="http://www.w3.org/2000/svg">
<path d="M11.9999 2C12.3631 2 12.6976 2.19717 12.8739 2.51465L15.5751 7.37598C15.7871 7.7572 16.0798 8.08814 16.4325 8.34473C16.7853 8.6013 17.1901 8.77806 17.6181 8.8623C18.046 8.94648 18.4874 8.93579 18.911 8.83203C19.3347 8.72822 19.7316 8.53322 20.0722 8.26074L21.3759 7.21875C21.7041 6.95653 22.1616 6.92698 22.5204 7.14551C22.8793 7.36408 23.0628 7.78427 22.9804 8.19629L21.2265 16.9658C21.12 17.4977 20.8935 17.9986 20.5644 18.4297C20.2351 18.8609 19.8113 19.2114 19.3261 19.4541C17.0514 20.5915 14.5431 21.1836 11.9999 21.1836C9.45673 21.1836 6.94842 20.5915 4.67375 19.4541C4.18853 19.2114 3.76476 18.8609 3.43547 18.4297C3.10631 17.9986 2.87978 17.4977 2.77336 16.9658L1.01945 8.19629C0.93703 7.78417 1.12138 7.36403 1.48039 7.14551C1.83934 6.92724 2.29682 6.95632 2.62492 7.21875L3.92863 8.26172C4.26924 8.53415 4.66515 8.72925 5.08879 8.83301C5.51257 8.93674 5.95467 8.94663 6.38273 8.8623C6.81057 8.77795 7.21469 8.6013 7.5673 8.34473C7.92006 8.08803 8.21283 7.75733 8.42472 7.37598L11.1259 2.51465C11.3022 2.19719 11.6367 2.00002 11.9999 2ZM16.8895 14.543C16.6372 14.0518 16.0341 13.8581 15.5429 14.1104C13.378 15.2219 11.0738 15.2919 8.89152 14.3193L8.45695 14.1104L8.3632 14.0684C7.89133 13.8837 7.3468 14.0825 7.11027 14.543C6.87374 15.0036 7.02971 15.562 7.455 15.8379L7.54289 15.8896L7.81437 16.0244C10.6225 17.3686 13.6644 17.3236 16.4569 15.8896C16.9481 15.6373 17.1418 15.0342 16.8895 14.543Z" fill="#9C8AFB"/>
</svg>
