<svg width="56" height="55" viewBox="0 0 56 55" fill="none" xmlns="http://www.w3.org/2000/svg">
<rect width="56" height="55" rx="16" fill="white"/>
<path d="M27.6396 15.1667C34.7271 15.1667 40.4735 20.9122 40.4736 27.9998C40.4736 35.0873 34.7272 40.8337 27.6396 40.8337C20.5521 40.8336 14.8066 35.0872 14.8066 27.9998C14.8068 20.9124 20.5522 15.1669 27.6396 15.1667ZM22.3066 31.4998C20.6321 31.4999 19.1747 32.4165 18.4004 33.7703L18.2441 34.0417L18.4219 34.3005C20.4325 37.2367 23.8099 39.1666 27.6396 39.1667C31.4694 39.1666 34.8467 37.2365 36.8574 34.3005L37.0342 34.0417L36.8789 33.7703C36.1048 32.4171 34.6482 31.5 32.9736 31.4998H22.3066ZM27.6396 18.1667C24.4184 18.167 21.8068 20.7784 21.8066 23.9998C21.8066 27.2213 24.4183 29.8334 27.6396 29.8337C30.8612 29.8336 33.4736 27.2214 33.4736 23.9998C33.4735 20.7783 30.8611 18.1669 27.6396 18.1667Z" fill="#D5CEFF" stroke="#BDB1FE"/>
</svg>
