<svg width="18" height="19" viewBox="0 0 18 19" fill="none" xmlns="http://www.w3.org/2000/svg">
<path d="M8.84131 0.231874L11.2692 5.71603L16.6966 6.59566C16.7655 6.60704 16.8302 6.63957 16.8833 6.68957C16.9364 6.73957 16.976 6.80506 16.9974 6.87868C17.0189 6.95229 17.0214 7.0311 17.0047 7.10622C16.9881 7.18135 16.9528 7.24981 16.903 7.30389L12.9765 11.5718L13.9036 17.5993C13.9155 17.6755 13.908 17.7539 13.8819 17.8256C13.8558 17.8973 13.8121 17.9594 13.7559 18.005C13.6996 18.0505 13.633 18.0776 13.5636 18.0832C13.4941 18.0888 13.4247 18.0727 13.3631 18.0367L8.50837 15.1914L3.65364 18.0375C3.59209 18.0736 3.52264 18.0899 3.45319 18.0844C3.38375 18.0788 3.31708 18.0518 3.26078 18.0063C3.20448 17.9608 3.1608 17.8986 3.13471 17.8269C3.10861 17.7552 3.10115 17.6768 3.11316 17.6006L4.04023 11.5718L0.112579 7.30389C0.0627779 7.24981 0.0275565 7.18135 0.010881 7.10622C-0.00579453 7.0311 -0.00326177 6.95229 0.018194 6.87868C0.0396498 6.80506 0.0791765 6.73957 0.132323 6.68957C0.185469 6.63957 0.250123 6.60704 0.319005 6.59566L5.7464 5.71603L8.17542 0.231874C8.20571 0.162379 8.25301 0.103769 8.3119 0.0627598C8.37078 0.0217505 8.43887 0 8.50837 0C8.57786 0 8.64595 0.0217505 8.70484 0.0627598C8.76372 0.103769 8.81102 0.162379 8.84131 0.231874Z" fill="#FB923C"/>
</svg>
