<svg width="16" height="16" viewBox="0 0 16 16" fill="none" xmlns="http://www.w3.org/2000/svg">
<path d="M8.48435 0.482152C8.9656 -0.311674 10.1747 -0.078408 10.3261 0.837474L11.0797 5.39611C11.1273 5.68406 11.2983 5.93685 11.5478 6.08815L15.499 8.48348C16.2928 8.96473 16.0595 10.1738 15.1437 10.3252L10.585 11.0788C10.2971 11.1264 10.0443 11.2974 9.89298 11.547L7.49765 15.4981C7.0164 16.2919 5.80731 16.0587 5.65591 15.1428L4.90234 10.5842C4.85474 10.2962 4.68372 10.0434 4.43415 9.89212L0.483018 7.49678C-0.310808 7.01553 -0.0775421 5.80644 0.83834 5.65504L5.39698 4.90148C5.68493 4.85388 5.93771 4.68286 6.08902 4.43328L8.48435 0.482152Z" fill="#FFEC00"/>
</svg>
