<svg width="37" height="35" viewBox="0 0 37 35" fill="none" xmlns="http://www.w3.org/2000/svg">
<path d="M19.8093 1.00513C19.5013 0.389113 18.8716 0 18.1829 0C17.4943 0 16.8646 0.389113 16.5566 1.00513L11.8674 10.3835L1.55662 11.8832C0.871798 11.9829 0.302893 12.4626 0.0890445 13.1207C-0.124804 13.779 0.053497 14.5014 0.548998 14.9845L8.0533 22.3011L6.36518 32.6173C6.25363 33.2992 6.53807 33.9852 7.09932 34.3881C7.66055 34.7909 8.40161 34.8409 9.01186 34.5172L18.1829 29.651L27.3539 34.5172C27.9641 34.8409 28.7053 34.7909 29.2666 34.3881C29.8277 33.9852 30.1123 33.2992 30.0006 32.6173L28.3125 22.3011L35.8168 14.9845C36.3123 14.5014 36.4906 13.779 36.2768 13.1207C36.063 12.4626 35.494 11.9829 34.8093 11.8832L24.4985 10.3835L19.8093 1.00513Z" fill="#FFF7ED"/>
</svg>
