<svg width="84" height="47" viewBox="0 0 84 47" fill="none" xmlns="http://www.w3.org/2000/svg">
<path fill-rule="evenodd" clip-rule="evenodd" d="M42.1807 0.0815082C42.0805 0.121571 41.9037 0.335666 41.788 0.557432C41.5264 1.05893 41.4676 6.69656 41.6931 9.647C41.7738 10.7018 41.8214 12.9259 41.7991 14.5892L41.7582 17.6137L42.1157 17.8923C42.7161 18.3602 43.5862 18.1525 43.8521 17.4777C44.0356 17.0122 43.95 9.70639 43.7387 7.80014C43.6566 7.05784 43.5875 5.10186 43.5853 3.4536C43.5819 0.733595 43.5572 0.43497 43.3193 0.221586C43.0658 -0.00572075 42.5566 -0.0683722 42.1807 0.0815082ZM71.5183 9.18529C70.8735 9.88766 68.9978 12.2673 68.8174 12.6117C68.6001 13.0269 67.4149 14.5807 67.2287 14.6948C67.1008 14.7731 65.8408 16.3524 64.8643 17.6586C64.2946 18.4203 63.5466 19.7511 63.4929 20.0987C63.3601 20.9555 64.0656 21.5996 64.8238 21.3141C65.163 21.1862 66.6624 19.2134 66.6624 18.8948C66.6624 18.8188 66.9176 18.449 67.2294 18.0731C67.5414 17.6972 68.0628 17.07 68.3882 16.6793C69.2842 15.6037 70.5332 13.8587 70.5332 13.6826C70.5332 13.5966 70.6461 13.393 70.784 13.2301C70.922 13.0673 71.2794 12.6455 71.578 12.293C72.3683 11.3602 73.257 10.0033 73.257 9.72912C73.257 9.37963 72.6049 8.7946 72.2152 8.7946C72.0288 8.7946 71.716 8.97006 71.5183 9.18529ZM16.1315 9.982C15.7197 10.2805 15.813 10.9094 16.3947 11.7567C16.6817 12.1748 16.9165 12.5803 16.9165 12.6577C16.9165 12.7353 17.0504 12.9685 17.214 13.1762C17.3775 13.3839 17.8578 14.0972 18.281 14.7614C18.7042 15.4256 19.2065 16.1608 19.3975 16.3952C19.5883 16.6296 19.9574 17.205 20.2176 17.6738C20.478 18.1426 20.8064 18.6552 20.9476 18.8127C21.0888 18.9703 21.3733 19.4138 21.5796 19.7985C21.9848 20.5538 23.1439 21.8822 23.8472 22.3975C24.421 22.8177 25.1428 22.8196 25.4382 22.4013C25.9288 21.7073 25.6338 20.9777 24.4567 19.9747C23.9308 19.5268 23.5531 19.0558 23.3568 18.6036C23.1924 18.2247 22.9018 17.7695 22.711 17.5919C22.5203 17.4144 22.3642 17.2001 22.3642 17.1159C22.3642 17.0316 22.0254 16.5006 21.6115 15.936C21.1977 15.3714 20.7299 14.7189 20.5722 14.4861C20.4145 14.2532 20.0336 13.6925 19.7256 13.24C19.4177 12.7875 18.814 11.8884 18.3841 11.242C17.9541 10.5957 17.4845 10.0043 17.3405 9.92787C16.9711 9.73196 16.4441 9.75554 16.1315 9.982ZM40.2842 22.3728C37.8937 22.5756 36.5964 22.7815 35.0804 23.1987C34.6232 23.3245 34.0738 23.4275 33.8596 23.4275C33.6456 23.4275 33.2246 23.558 32.9241 23.7176C32.6237 23.8771 32.0119 24.1416 31.5643 24.3053C30.5409 24.6798 29.8367 25.0713 27.9915 26.2917C27.1835 26.826 26.4886 27.2633 26.4474 27.2633C26.2706 27.2633 24.3418 28.8308 23.1372 29.9533C22.4189 30.6226 21.6448 31.3341 21.4168 31.5342C20.7832 32.0908 19.6107 33.5888 19.2103 34.3531C19.0131 34.7293 18.6923 35.3179 18.4972 35.6608C18.3022 36.0039 18.0651 36.5722 17.9702 36.9238C17.8754 37.2754 17.5954 38.1065 17.3479 38.7707C16.8133 40.2051 16.6709 40.763 16.4772 42.1803C16.3972 42.7663 16.2742 43.5352 16.204 43.8888C16.0348 44.7396 16.2448 46.3835 16.5677 46.7369C16.8832 47.0826 17.5046 47.0884 17.9266 46.7497C18.169 46.5551 18.242 46.3656 18.2136 46.0039C18.1144 44.7426 18.1868 43.6772 18.4542 42.4644C18.5661 41.9565 18.7066 41.3172 18.7666 41.0438C18.8263 40.7703 19.1682 39.8113 19.5264 38.9128C19.8843 38.0142 20.2254 37.1192 20.2842 36.9238C20.3429 36.7285 20.4738 36.4728 20.5749 36.3555C20.676 36.2383 20.8609 35.8972 20.9858 35.5976C21.2498 34.9639 22.4025 33.5554 23.1916 32.9019C23.4926 32.6527 24.2198 31.9792 24.8077 31.4052C25.9419 30.2981 27.4206 29.1397 28.9559 28.1562C30.1671 27.3802 33.8614 25.5585 34.2238 25.5585C34.3779 25.5585 35.0143 25.4234 35.6379 25.2582C36.8759 24.9303 38.2781 24.6899 38.4258 24.7804C38.4771 24.8118 38.7674 24.7696 39.0709 24.6865C39.7019 24.5139 40.139 24.4761 42.9851 24.3481C45.1259 24.2517 46.4682 24.4325 47.5196 24.9588C47.7537 25.076 48.302 25.2533 48.7381 25.3529C49.9704 25.6342 50.4398 25.7846 51.7862 26.33C52.4747 26.6089 53.1391 26.8371 53.2627 26.8371C53.3864 26.8371 53.6617 26.9247 53.8747 27.0317C54.0876 27.1388 54.5679 27.2705 54.942 27.3245C55.3162 27.3784 55.8 27.565 56.0172 27.7391C56.2344 27.9131 56.5735 28.1667 56.7706 28.3026C56.9677 28.4386 57.5483 28.8382 58.0608 29.1907C58.5733 29.5432 59.2876 30.0688 59.6481 30.3588C60.0085 30.6487 60.6536 31.1641 61.0817 31.504C64.3152 34.0718 64.0276 33.7499 66.4313 37.4921C66.7075 37.9218 66.9773 38.4013 67.0312 38.5576C67.0849 38.7139 67.274 39.1614 67.4515 39.552C68.1072 40.9959 68.3724 41.9845 68.4612 43.3168C68.5108 44.0591 68.617 44.8803 68.6976 45.1415C68.8815 45.7385 69.5232 46.053 70.1297 45.8435C70.7359 45.6341 70.8063 45.1452 70.6063 42.5366C70.5154 41.353 70.4053 40.8149 70.1514 40.314C69.9672 39.9503 69.8164 39.5772 69.8164 39.4846C69.8164 39.201 68.6098 36.8953 68.0675 36.1424C67.7861 35.7518 67.3464 35.0166 67.0905 34.5087C66.7364 33.806 66.2478 33.2203 65.0462 32.058C64.1777 31.2181 63.4136 30.5308 63.3481 30.5308C63.2827 30.5308 62.792 30.1613 62.2578 29.7097C61.7235 29.258 61.1177 28.7627 60.9115 28.6087C60.7054 28.4548 59.9958 27.9183 59.3346 27.4169C58.1195 26.495 55.9524 25.2743 55.531 25.2743C55.1638 25.2743 52.177 24.2726 51.4102 23.8923C51.0246 23.701 50.2878 23.4795 49.773 23.4001C49.2582 23.3206 48.6009 23.1337 48.3123 22.9847C46.7917 22.1992 44.4416 22.0202 40.2842 22.3728ZM82.2563 26.9294C81.3911 27.8851 80.9086 28.2649 79.2138 29.3232C78.9636 29.4795 78.4079 29.9076 77.9791 30.2745C77.0434 31.0751 75.5472 32.0927 75.3049 32.0933C75.1002 32.0935 73.348 33.7905 73.124 34.2054C72.8881 34.6421 72.9377 34.9156 73.3222 35.2964C73.8988 35.868 74.3481 35.7596 75.4074 34.7928C75.9199 34.3251 76.4138 33.942 76.5048 33.9414C76.596 33.9408 76.9287 33.7327 77.2444 33.4787C77.5601 33.2247 78.1869 32.7293 78.6373 32.3777C79.0879 32.0261 79.5597 31.6264 79.6858 31.4898C79.812 31.353 80.0041 31.2411 80.1126 31.2411C80.2211 31.2411 80.4811 31.0619 80.6901 30.8428C80.8991 30.6237 81.4353 30.2058 81.8817 29.914C82.6557 29.4081 83.4863 28.5451 83.8434 27.8764C84.0873 27.4194 84.0459 27.0157 83.7223 26.695C83.2819 26.2586 82.7927 26.3369 82.2563 26.9294ZM0.25088 29.6898C0.0837223 29.7862 0 30.0094 0 30.3585C0 30.8216 0.116982 30.9938 1.00897 31.8434C1.56391 32.372 2.19284 32.9148 2.40673 33.0499C2.62062 33.185 3.44881 33.7871 4.24733 34.3881C5.04584 34.989 6.02041 35.6419 6.41307 35.8391C6.80588 36.0365 7.3138 36.3507 7.54174 36.5378C8.14371 37.0315 9.94231 38.0603 10.2034 38.0603C10.3262 38.0603 10.5966 37.9278 10.8043 37.7658C11.3358 37.3517 11.3135 36.7333 10.7486 36.2102C10.2492 35.7481 8.38327 34.5131 7.02464 33.7458C6.51213 33.4563 5.73799 32.9603 5.30432 32.6436C4.87066 32.3268 4.25665 31.8978 3.93968 31.6899C3.62285 31.4822 3.23578 31.1992 3.07952 31.0613C1.33239 29.5175 0.906896 29.3112 0.25088 29.6898Z" fill="#F43F5E"/>
</svg>
