<svg width="32" height="32" viewBox="0 0 32 32" fill="none" xmlns="http://www.w3.org/2000/svg">
<path d="M15.999 3.16675C23.0865 3.16675 28.8328 8.91225 28.833 15.9998C28.833 23.0873 23.0866 28.8337 15.999 28.8337C8.91152 28.8336 3.16602 23.0872 3.16602 15.9998C3.16619 8.91236 8.91162 3.16692 15.999 3.16675ZM10.666 19.4998C8.99148 19.4999 7.53404 20.4165 6.75977 21.7703L6.60352 22.0417L6.78125 22.3005C8.79186 25.2367 12.1693 27.1666 15.999 27.1667C19.8288 27.1666 23.2061 25.2365 25.2168 22.3005L25.3936 22.0417L25.2383 21.7703C24.4641 20.4171 23.0075 19.5 21.333 19.4998H10.666ZM15.999 6.16675C12.7777 6.16703 10.1662 8.77839 10.166 11.9998C10.166 15.2213 12.7776 17.8334 15.999 17.8337C19.2206 17.8336 21.833 15.2214 21.833 11.9998C21.8328 8.77829 19.2205 6.16686 15.999 6.16675Z" fill="#D5CEFF" stroke="#BDB1FE"/>
</svg>
