<svg width="20" height="22" viewBox="0 0 20 22" fill="none" xmlns="http://www.w3.org/2000/svg">
<path d="M1.09375 1.13281L4.58984 6.25C5.05859 6.92708 5.5013 7.5651 5.91797 8.16406C6.33464 8.77604 6.69596 9.30664 7.00195 9.75586C7.30794 10.2051 7.55208 10.5664 7.73438 10.8398C7.90365 11.1003 7.98828 11.237 7.98828 11.25C7.98828 11.25 7.65625 11.6406 6.99219 12.4219C6.3151 13.2031 5.56315 14.0788 4.73633 15.0488C3.90951 16.0189 3.125 16.9336 2.38281 17.793C1.64062 18.6523 1.19141 19.1667 1.03516 19.3359C1.00911 19.362 1.03516 19.3783 1.11328 19.3848C1.19141 19.3913 1.41927 19.3945 1.79688 19.3945H2.59766L5.64453 15.8398C6.80339 14.4987 7.60742 13.571 8.05664 13.0566C8.50586 12.5423 8.73698 12.2917 8.75 12.3047C8.76302 12.3177 9.00716 12.6693 9.48242 13.3594C9.95768 14.0495 10.5273 14.8763 11.1914 15.8398C12.2201 17.3893 12.9883 18.5352 13.4961 19.2773C14.0039 20.0195 14.4596 20.6771 14.8633 21.25L13.6133 19.3555C13.6263 19.3685 13.8184 19.3783 14.1895 19.3848C14.5605 19.3913 15.2734 19.3945 16.3281 19.3945L19.0039 19.375L15.3711 14.1016C14.8633 13.3724 14.3945 12.6888 13.9648 12.0508C13.5221 11.3997 13.1348 10.8333 12.8027 10.3516C12.4707 9.86979 12.2135 9.49219 12.0312 9.21875C11.8359 8.93229 11.7448 8.78255 11.7578 8.76953C11.7578 8.76953 12.0801 8.39193 12.7246 7.63672C13.3691 6.88151 14.1406 5.97656 15.0391 4.92188C15.9375 3.88021 16.7122 2.97852 17.3633 2.2168C18.0143 1.45508 18.3464 1.06771 18.3594 1.05469C18.3854 1.02865 18.3626 1.01237 18.291 1.00586C18.2194 0.99935 17.9948 0.996094 17.6172 0.996094H16.8164L13.9258 4.375C13.1315 5.29948 12.4479 6.0905 11.875 6.74805C11.3021 7.4056 11.0091 7.73438 10.9961 7.73438C10.9961 7.73438 10.7682 7.4056 10.3125 6.74805C9.85677 6.0905 9.3099 5.29948 8.67188 4.375L6.38672 1.01562L0.996094 0.996094L1.09375 1.13281ZM11.2109 10.2148C11.9792 11.3216 12.7018 12.3568 13.3789 13.3203C14.056 14.2969 14.6484 15.1497 15.1562 15.8789C15.6641 16.6081 16.0612 17.181 16.3477 17.5977C16.6471 18.0273 16.7969 18.2422 16.7969 18.2422C16.7969 18.2552 16.6797 18.2617 16.4453 18.2617C16.2109 18.2617 15.9245 18.2617 15.5859 18.2617L14.3945 18.2422L3.16406 2.20703L5.60547 2.22656L11.2109 10.2148Z" fill="#27272A"/>
</svg>
